<?xml version="1.0" standalone="no"?><!DOCTYPE svg PUBLIC "-//W3C//DTD SVG 1.1//EN" "http://www.w3.org/Graphics/SVG/1.1/DTD/svg11.dtd"><svg t="1541518103559" class="icon" style="" viewBox="0 0 1024 1024" version="1.1" xmlns="http://www.w3.org/2000/svg" p-id="14483" xmlns:xlink="http://www.w3.org/1999/xlink" width="200" height="200"><defs><style type="text/css"></style></defs><path d="M1024 512c0-282.763636-229.236364-512-512-512C229.236364 0 0 229.236364 0 512c0 282.763636 229.236364 512 512 512C794.763636 1024 1024 794.763636 1024 512zM430.545455 747.799273c-67.490909 0-101.189818-19.595636-101.189818-58.786909 0-16.430545 10.565818-30.487273 31.744-42.077091 21.178182-11.589818 46.498909-17.408 76.008727-17.408 26.624 0 52.363636 10.752 77.265455 32.302545L514.373818 254.836364l22.109091-1.070545c5.538909 14.987636 11.682909 25.367273 18.292364 31.185455 6.656 5.818182 19.269818 11.589818 37.888 17.408 63.581091 19.083636 95.418182 45.335273 95.418182 78.708364 0 21.783273-14.987636 47.290182-44.962909 76.520727l-9.076364-14.894545c11.357091-14.289455 17.035636-26.484364 17.035636-36.631273 0-15.732364-14.522182-28.532364-43.52-38.446545-29.509818-9.681455-52.968727-20.293818-70.376727-31.930182l0.372364 321.024 0 18.478545c0 10.379636-0.465455 17.547636-1.442909 21.410909-3.630545 14.522182-14.708364 26.670545-33.186909 36.445091C484.445091 742.912 460.288 747.799273 430.545455 747.799273z" p-id="14484" fill="#20B2AA"></path></svg>