<?xml version="1.0" standalone="no"?><!DOCTYPE svg PUBLIC "-//W3C//DTD SVG 1.1//EN" "http://www.w3.org/Graphics/SVG/1.1/DTD/svg11.dtd"><svg t="1541342367089" class="icon" style="" viewBox="0 0 1024 1024" version="1.1" xmlns="http://www.w3.org/2000/svg" p-id="4811" xmlns:xlink="http://www.w3.org/1999/xlink" width="200" height="200"><defs><style type="text/css"></style></defs><path d="M143.36 604.3648h122.88a20.48 20.48 0 0 0 0-40.96H143.36a20.48 20.48 0 0 0 0 40.96zM880.64 891.0848H143.36a20.48 20.48 0 0 0 0 40.96h737.28a20.48 20.48 0 0 0 0-40.96zM778.24 92.3648a204.8 204.8 0 0 0-30.9248 2.6624 20.48 20.48 0 0 0-30.5152 15.36l-47.9232 449.1264A189.8496 189.8496 0 0 0 512 481.4848c-102.4 0-184.32 73.3184-184.32 163.84s81.92 163.84 184.32 163.84a184.32 184.32 0 0 0 171.2128-103.424 20.48 20.48 0 0 0 13.5168-16.9984l58.5728-552.96A157.4912 157.4912 0 0 1 778.24 133.3248a163.84 163.84 0 0 1 162.2016 143.36 204.8 204.8 0 0 1 40.96 40.96v-20.48a204.8 204.8 0 0 0-203.1616-204.8z m-266.24 675.84c-79.2576 0-143.36-55.0912-143.36-122.88s64.1024-122.88 143.36-122.88 143.36 55.0912 143.36 122.88-64.1024 122.88-143.36 122.88z" p-id="4812" fill="#20B2AA"></path><path d="M143.36 276.6848h450.56a20.48 20.48 0 1 0 0-40.96H143.36a20.48 20.48 0 1 0 0 40.96z" p-id="4813" fill="#20B2AA"></path><path d="M61.44 583.8848m-20.48 0a20.48 20.48 0 1 0 40.96 0 20.48 20.48 0 1 0-40.96 0Z" p-id="4814" fill="#20B2AA"></path><path d="M61.44 256.2048m-20.48 0a20.48 20.48 0 1 0 40.96 0 20.48 20.48 0 1 0-40.96 0Z" p-id="4815" fill="#20B2AA"></path><path d="M61.44 911.5648m-20.48 0a20.48 20.48 0 1 0 40.96 0 20.48 20.48 0 1 0-40.96 0Z" p-id="4816" fill="#20B2AA"></path></svg>