<?xml version="1.0" standalone="no"?><!DOCTYPE svg PUBLIC "-//W3C//DTD SVG 1.1//EN" "http://www.w3.org/Graphics/SVG/1.1/DTD/svg11.dtd"><svg t="1541342282261" class="icon" style="" viewBox="0 0 1024 1024" version="1.1" xmlns="http://www.w3.org/2000/svg" p-id="4137" xmlns:xlink="http://www.w3.org/1999/xlink" width="200" height="200"><defs><style type="text/css"></style></defs><path d="M174.087409 63.83998c-13.8351 0-25.03007 11.19497-25.03007 25.03007l0 846.257853c0 13.836123 11.19497 25.031093 25.03007 25.031093 13.836123 0 25.03007-11.193947 25.03007-25.031093l0-404.727835c0 14.395872 8.677637 26.985608 21.852704 35.272341l550.793538 347.114672c10.169617 6.40385 24.835641 9.777691 36.665061 9.777691 35.004235 0 66.512856-28.501124 66.512856-63.457264L874.941638 164.890444c0-34.979676-32.756031-63.431681-67.733661-63.431681-11.80793 0-25.568329 3.372817-35.737946 9.753131L222.021118 458.31531c-13.175067 8.262174-22.903639 20.874423-22.903639 35.247782L199.117478 88.87005C199.117478 75.03495 187.922509 63.83998 174.087409 63.83998zM242.701113 500.700653 795.939329 153.621796c2.222621-1.39272 8.847505-2.101871 11.268648-2.101871 6.427386 0 17.672498 5.108345 17.672498 13.370519l0 694.217065c0 11.342326-16.524348 16.379039-24.663726 11.294231L244.852102 523.287067c-5.622044-3.569292-7.333012-9.093099-7.333012-11.293207C237.51909 509.744633 237.079068 504.220826 242.701113 500.700653z" p-id="4138" fill="#20B2AA"></path></svg>