<?xml version="1.0" standalone="no"?><!DOCTYPE svg PUBLIC "-//W3C//DTD SVG 1.1//EN" "http://www.w3.org/Graphics/SVG/1.1/DTD/svg11.dtd"><svg t="1541128644477" class="icon" style="" viewBox="0 0 1024 1024" version="1.1" xmlns="http://www.w3.org/2000/svg" p-id="3595" xmlns:xlink="http://www.w3.org/1999/xlink" width="200" height="200"><defs><style type="text/css"></style></defs><path d="M841.192999 842.029552c0 25.989931-21.087271 47.078225-47.079248 47.078225L158.549527 889.107777c-25.984814 0-47.078225-21.087271-47.078225-47.078225L111.471302 253.541507c0-25.984814 21.093411-47.078225 47.078225-47.078225l306.012555 0L464.562083 135.846968 111.472326 135.846968c-38.980803 0-70.617337 31.615045-70.617337 70.617337l0 682.643472c0 38.980803 31.636534 70.617337 70.617337 70.617337l729.721697 0c39.006386 0 70.617337-31.636534 70.617337-70.617337l0-235.391125-70.617337 0L841.194022 842.029552 841.192999 842.029552zM972.803479 264.608563 782.815427 74.619488c-13.793144-13.793144-36.136012-13.793144-49.928133 0-13.792121 13.771655-13.792121 36.136012 0 49.929156l108.751866 108.750843c-247.938905-4.729721-476.033857 169.368432-555.621497 407.564439l65.319681 31.354102c70.198805-212.233706 304.035528-390.073066 527.660678-364.792287l-145.496745 145.473209c-13.652951 13.679557-13.652951 35.849486 0 49.529043 13.674441 13.675464 35.827997 13.675464 49.523927 0l184.222745-184.244234c1.858324-1.249457 3.904936-2.025123 5.525853-3.673669C986.5956 300.764018 986.5956 278.400684 972.803479 264.608563L972.803479 264.608563zM972.803479 264.608563" p-id="3596" fill="#ffffff"></path></svg>