<?xml version="1.0" standalone="no"?><!DOCTYPE svg PUBLIC "-//W3C//DTD SVG 1.1//EN" "http://www.w3.org/Graphics/SVG/1.1/DTD/svg11.dtd"><svg t="1542104927660" class="icon" style="" viewBox="0 0 1024 1024" version="1.1" xmlns="http://www.w3.org/2000/svg" p-id="3613" xmlns:xlink="http://www.w3.org/1999/xlink" width="200" height="200"><defs><style type="text/css"></style></defs><path d="M543.503059 102.068706l-2.831059 530.55247a30.117647 30.117647 0 0 1-60.235294-0.301176l2.800941-528.715294-160.768 160.768a30.117647 30.117647 0 0 1-42.586353-42.586353L492.845176 8.824471a30.117647 30.117647 0 0 1 42.586353 0l212.961883 212.961882a30.117647 30.117647 0 1 1-42.586353 42.586353l-162.334118-162.334118zM708.306824 391.529412a30.117647 30.117647 0 0 1 0-60.235294H873.411765a60.235294 60.235294 0 0 1 60.235294 60.235294v572.235294a60.235294 60.235294 0 0 1-60.235294 60.235294H150.588235a60.235294 60.235294 0 0 1-60.235294-60.235294V391.529412a60.235294 60.235294 0 0 1 60.235294-60.235294h163.056941a30.117647 30.117647 0 0 1 0 60.235294H150.588235v572.235294h722.82353V391.529412h-165.104941z" fill="#20B2AA" p-id="3614"></path></svg>