<?xml version="1.0" standalone="no"?><!DOCTYPE svg PUBLIC "-//W3C//DTD SVG 1.1//EN" "http://www.w3.org/Graphics/SVG/1.1/DTD/svg11.dtd"><svg t="1541088564389" class="icon" style="" viewBox="0 0 1024 1024" version="1.1" xmlns="http://www.w3.org/2000/svg" p-id="3337" xmlns:xlink="http://www.w3.org/1999/xlink" width="200" height="200"><defs><style type="text/css"></style></defs><path d="M254.7712 652.6976c-90.5216 0-163.84 64.1024-163.84 143.36s73.3184 143.36 163.84 143.36 163.84-64.1024 163.84-143.36-73.3184-143.36-163.84-143.36z m0 245.76c-67.7888 0-122.88-45.8752-122.88-102.4s55.0912-102.4 122.88-102.4 122.88 45.8752 122.88 102.4-55.0912 102.4-122.88 102.4zM766.7712 529.8176c-90.5216 0-163.84 64.1024-163.84 143.36s73.3184 143.36 163.84 143.36 163.84-64.1024 163.84-143.36-73.3184-143.36-163.84-143.36z m0 245.76c-67.7888 0-122.88-45.8752-122.88-102.4s55.0912-102.4 122.88-102.4 122.88 45.8752 122.88 102.4-55.0912 102.4-122.88 102.4z" p-id="3338" fill="#ffffff"></path><path d="M398.1312 222.6176a20.48 20.48 0 0 1 20.48 20.48v532.48a20.48 20.48 0 0 1-40.96 0v-532.48a20.48 20.48 0 0 1 20.48-20.48zM912.5888 84.992a20.48 20.48 0 0 1 20.48 20.48v573.44a20.48 20.48 0 0 1-40.96 0v-573.44a20.48 20.48 0 0 1 20.48-20.48z" p-id="3339" fill="#ffffff"></path><path d="M392.8064 223.232l514.2528-137.8304a20.48 20.48 0 0 1 10.6496 39.5264L403.456 262.7584a20.48 20.48 0 0 1-10.6496-39.5264zM500.5312 399.1552l-107.7248 28.8768a20.48 20.48 0 0 0 10.6496 39.5264l97.0752-26.0096zM932.2496 304.5376a20.48 20.48 0 0 0-24.9856-14.5408L541.4912 389.12v40.96l376.2176-100.352a20.48 20.48 0 0 0 14.5408-25.1904z" p-id="3340" fill="#ffffff"></path></svg>