<?xml version="1.0" standalone="no"?><!DOCTYPE svg PUBLIC "-//W3C//DTD SVG 1.1//EN" "http://www.w3.org/Graphics/SVG/1.1/DTD/svg11.dtd"><svg t="1541342292297" class="icon" style="" viewBox="0 0 1024 1024" version="1.1" xmlns="http://www.w3.org/2000/svg" p-id="4317" xmlns:xlink="http://www.w3.org/1999/xlink" width="200" height="200"><defs><style type="text/css"></style></defs><path d="M872.44009707 990.03735467c14.75744 0 26.69874133-11.94130133 26.69874133-26.69874134l0-902.6750432c0-14.7585312-11.94130133-26.69983253-26.69874133-26.69983254-14.7585312 0-26.69874133 11.94021013-26.69874134 26.69983254l0 431.70969067c0-15.35559681-9.25614614-28.78464853-23.30955093-37.6238304l-587.5131072-370.25565013c-10.84759147-6.83077333-26.4913504-10.42953707-39.1093984-10.42953707-37.33785066 0-70.94704639 30.40119893-70.9470464 67.68774827L124.8622528 882.25019307c0 37.3116544 34.9397664 67.66045973 72.2492384 67.66045973 12.59512533 0 27.27288427-3.59767147 38.12047573-10.40333973L821.31080748 569.26366933c14.0534048-8.8129856 24.43054827-22.26605119 24.43054825-37.59763413L845.7413568 963.33861333C845.7413568 978.09605333 857.68265707 990.03735467 872.44009707 990.03735467zM799.25214613 524.0526368L209.1313824 894.27008427c-2.37079573 1.485568-9.43733867 2.24199572-12.0198912 2.24199574-6.8558784 0-18.85066453-5.44890133-18.85066452-14.26188694l-1e-8-740.49820267c0-12.09848107 17.6259712-17.47097493 26.3079744-12.04717973L796.95775787 499.96046187c5.99684693 3.80724481 7.82187947 9.6993056 7.82187946 12.04608747C804.77963733 514.4057248 805.24899413 520.2977856 799.25214613 524.0526368z" p-id="4318" fill="#20B2AA"></path></svg>