<?xml version="1.0" standalone="no"?><!DOCTYPE svg PUBLIC "-//W3C//DTD SVG 1.1//EN" "http://www.w3.org/Graphics/SVG/1.1/DTD/svg11.dtd"><svg t="1540869063570" class="icon" style="" viewBox="0 0 1024 1024" version="1.1" xmlns="http://www.w3.org/2000/svg" p-id="1656" xmlns:xlink="http://www.w3.org/1999/xlink" width="200" height="200"><defs><style type="text/css"></style></defs><path d="M355.66933333 653.65333333c5.00622222 0 9.67111111-1.36533333 13.76711112-3.75466666l195.35644444-113.77777778c9.10222222-4.096 15.47377778-13.53955555 15.47377778-24.46222222 0-10.01244445-5.46133333-18.88711111-13.53955556-23.552l-190.91911111-111.27466667c-4.89244445-5.68888889-12.17422222-9.216-20.13866667-9.216-14.90488889 0-26.85155555 12.17422222-26.85155555 27.07911111v1.47911111l-0.34133333 0.22755556 0.4551111 227.328c-0.11377778 0.91022222-0.11377778 1.82044445-0.11377777 2.84444444 0 15.01866667 12.06044445 27.07911111 26.85155555 27.07911111zM3.072 596.53688889a36.63644445 36.52266667 0 1 0 73.27288889 0 36.63644445 36.52266667 0 1 0-73.27288889 0z" fill="#ffffff" p-id="1657"></path><path d="M1021.72444445 382.63466667c0.11377778-1.82044445 0.22755555-3.64088889 0.22755555-5.46133334 0-39.82222222-32.42666667-72.02133333-72.36266667-72.02133333-13.312 0-25.82755555 3.64088889-36.63644444 9.89866667l-0.56888889-0.34133334-35.84 20.70755556v-73.61422222c-0.11377778-83.17155555-68.15288889-151.32444445-151.43822222-151.32444445H154.05511111c-83.17155555 0-151.32444445 68.03911111-151.32444444 151.32444445v188.64355555h0.22755555c0 20.13866667 16.384 36.52266667 36.63644445 36.52266667s36.63644445-16.384 36.63644444-36.52266667h0.22755556V256c0-40.04977778 32.768-72.81777778 72.81777778-72.81777778h580.49422222c40.04977778 0 72.81777778 32.768 72.81777778 72.81777778v510.74844445c0 40.04977778-32.768 72.81777778-72.81777778 72.81777777H149.39022222c-40.04977778 0-72.81777778-32.768-72.81777777-72.81777777v-24.34844445c0-20.13866667-16.384-36.52266667-36.63644445-36.52266667-20.25244445 0-36.63644445 16.384-36.63644445 36.52266667h-0.4551111v17.408c0 83.28533333 68.15288889 151.32444445 151.32444444 151.32444445h571.05066666c83.28533333 0 151.32444445-68.03911111 151.32444445-151.32444445v-72.93155555l37.66044445 21.73155555 0.11377777-0.11377778c10.46755555 5.80266667 22.528 9.10222222 35.27111111 9.10222223 39.936 0 72.36266667-32.31288889 72.36266667-72.02133334 0-1.82044445-0.11377778-3.64088889-0.22755555-5.46133333V382.63466667z m-72.36266667 233.35822222c-0.34133333 8.87466667-7.85066667 16.04266667-17.06666667 16.04266666-3.072 0-6.03022222-0.79644445-8.53333333-2.27555555l-47.21777778-26.96533333V418.816l46.53511111-26.39644445c2.61688889-1.70666667 5.80266667-2.61688889 9.216-2.61688888 9.44355555 0 17.06666667 7.50933333 17.06666667 16.61155555v209.57866667z" fill="#ffffff" p-id="1658"></path></svg>