<?xml version="1.0" standalone="no"?><!DOCTYPE svg PUBLIC "-//W3C//DTD SVG 1.1//EN" "http://www.w3.org/Graphics/SVG/1.1/DTD/svg11.dtd"><svg t="1541407979944" class="icon" style="" viewBox="0 0 1024 1024" version="1.1" xmlns="http://www.w3.org/2000/svg" p-id="5950" xmlns:xlink="http://www.w3.org/1999/xlink" width="200" height="200"><defs><style type="text/css"></style></defs><path d="M798.72 512a204.8 204.8 0 0 0-204.8-204.8v40.96a163.84 163.84 0 0 1 0 327.68v40.96a204.8 204.8 0 0 0 204.8-204.8z" p-id="5951" fill="#20B2AA"></path><path d="M593.92 163.84v40.96a307.2 307.2 0 1 1 0 614.4v40.96a348.16 348.16 0 1 0 0-696.32zM532.48 102.4v-2.2528a40.96 40.96 0 0 0-49.3568 6.3488L282.0096 307.2h58.1632l157.2864-157.2864A20.48 20.48 0 0 1 512 143.36v737.28a20.48 20.48 0 0 1-14.5408-5.9392L340.3776 716.8H143.36a20.48 20.48 0 0 1-20.48-20.48V327.68a20.48 20.48 0 0 1 20.48-20.48h138.6496l40.96-40.96H122.88a40.96 40.96 0 0 0-40.96 40.96v409.6a40.96 40.96 0 0 0 40.96 40.96h200.704l159.3344 159.3344a40.96 40.96 0 0 0 49.3568 6.3488V921.6a20.48 20.48 0 0 0 20.48-20.48V122.88A20.48 20.48 0 0 0 532.48 102.4z" p-id="5952" fill="#20B2AA"></path></svg>