<?xml version="1.0" standalone="no"?><!DOCTYPE svg PUBLIC "-//W3C//DTD SVG 1.1//EN" "http://www.w3.org/Graphics/SVG/1.1/DTD/svg11.dtd"><svg t="1540975264741" class="icon" style="" viewBox="0 0 1024 1024" version="1.1" xmlns="http://www.w3.org/2000/svg" p-id="4102" xmlns:xlink="http://www.w3.org/1999/xlink" width="200" height="200"><defs><style type="text/css"></style></defs><path d="M320.853333 385.706667c0 17.066667 13.653333 34.133333 34.133334 34.133333s34.133333-13.653333 34.133333-34.133333-13.653333-34.133333-34.133333-34.133334-34.133333 17.066667-34.133334 34.133334z m146.773334 0c0 17.066667 13.653333 34.133333 34.133333 34.133333s34.133333-13.653333 34.133333-34.133333c0-17.066667-13.653333-34.133333-34.133333-34.133334-17.066667 0-34.133333 13.653333-34.133333 34.133334z m85.333333 150.186666c0 13.653333 10.24 23.893333 23.893333 23.893334s23.893333-10.24 23.893334-23.893334-13.653333-23.893333-23.893334-23.893333c-13.653333 0-23.893333 10.24-23.893333 23.893333z m119.466667 0c0 13.653333 10.24 23.893333 23.893333 23.893334s23.893333-10.24 23.893333-23.893334-13.653333-23.893333-27.306666-23.893333-20.48 10.24-20.48 23.893333z" fill="#50B674" p-id="4103"></path><path d="M512 0C228.693333 0 0 228.693333 0 512s228.693333 512 512 512 512-228.693333 512-512S795.306667 0 512 0z m-88.746667 631.466667c-27.306667 0-47.786667-6.826667-75.093333-10.24l-75.093333 34.133333 20.48-64.853333C238.933333 552.96 208.213333 505.173333 208.213333 443.733333c0-102.4 95.573333-180.906667 215.04-180.906666 105.813333 0 197.973333 64.853333 218.453334 150.186666h-20.48c-102.4 0-180.906667 75.093333-180.906667 170.666667 0 17.066667 3.413333 30.72 6.826667 44.373333-10.24 0-17.066667 3.413333-23.893334 3.413334z m317.44 75.093333l17.066667 54.613333-58.026667-30.72c-20.48 6.826667-44.373333 10.24-64.853333 10.24-102.4 0-180.906667-68.266667-180.906667-157.013333s78.506667-157.013333 180.906667-157.013333c95.573333 0 180.906667 68.266667 180.906667 157.013333 0 47.786667-34.133333 88.746667-75.093334 122.88z" fill="#10C904" p-id="4104"></path></svg>